<?xml version="1.0" encoding="UTF-8"?>
<svg width="1024px" height="512px" viewBox="0 0 1024 512" version="1.1" xmlns="http://www.w3.org/2000/svg" xmlns:xlink="http://www.w3.org/1999/xlink">
    <title>Code Completion Logo - Dark Content - Standard</title>
    <g id="Code-Completion-Logo---Dark-Content---Standard" stroke="none" stroke-width="1" fill="none" fill-rule="evenodd">
        <g id="Logo-Copy" transform="translate(177.000000, 164.000000)">
            <path d="M104.71875,73.40625 C118.96875,73.40625 128.484375,64.359375 128.484375,50.671875 L118.640625,50.671875 C118.453125,59.203125 113.109375,64.453125 104.671875,64.453125 C94.5,64.453125 89.203125,57.5625 89.203125,44.4375 L89.203125,31.921875 C89.203125,18.796875 94.5,11.90625 104.625,11.90625 C112.734375,11.90625 118.359375,17.8125 118.640625,26.671875 L128.484375,26.671875 C128.296875,11.8125 119.34375,2.953125 104.71875,2.953125 C88.59375,2.953125 79.171875,13.59375 79.171875,31.921875 L79.171875,44.4375 C79.171875,62.765625 88.59375,73.40625 104.71875,73.40625 Z M162.515625,72.984375 C176.296875,72.984375 185.0625,64.171875 185.0625,50.34375 L185.0625,42.609375 C185.0625,28.734375 176.296875,19.96875 162.515625,19.96875 C148.734375,19.96875 139.96875,28.734375 139.96875,42.609375 L139.96875,50.34375 C139.96875,64.171875 148.734375,72.984375 162.515625,72.984375 Z M162.515625,65.015625 C154.359375,65.015625 149.25,59.15625 149.25,49.6875 L149.25,43.265625 C149.25,33.796875 154.359375,27.9375 162.515625,27.9375 C170.671875,27.9375 175.78125,33.796875 175.78125,43.265625 L175.78125,49.6875 C175.78125,59.15625 170.671875,65.015625 162.515625,65.015625 Z M217.921875,72.84375 C225.28125,72.84375 230.53125,69.703125 232.96875,63.9375 L233.859375,63.9375 L233.859375,72 L243.28125,72 L243.28125,0.984375 L233.625,0.984375 L233.625,29.015625 L232.734375,29.015625 C230.671875,23.296875 225.28125,20.0625 217.921875,20.0625 C206.15625,20.0625 198.65625,28.453125 198.65625,41.8125 L198.65625,51.09375 C198.65625,64.453125 206.15625,72.84375 217.921875,72.84375 Z M221.015625,64.5 C213.140625,64.5 208.171875,58.96875 208.171875,50.203125 L208.171875,42.5625 C208.171875,33.796875 213.140625,28.21875 221.015625,28.21875 C228.890625,28.21875 233.859375,33.75 233.859375,42.5625 L233.859375,50.203125 C233.859375,58.96875 228.890625,64.5 221.015625,64.5 Z M282.375,72.984375 C293.390625,72.984375 301.828125,67.078125 303.1875,58.5 L294.1875,58.5 C292.921875,62.671875 288.375,65.25 282.328125,65.25 C274.265625,65.25 269.0625,59.71875 269.0625,51.09375 L269.0625,48.796875 L303.328125,48.796875 L303.328125,43.265625 C303.328125,28.734375 295.21875,19.921875 281.859375,19.921875 C268.59375,19.921875 259.828125,28.78125 259.828125,42.234375 L259.828125,50.015625 C259.828125,64.546875 268.03125,72.984375 282.375,72.984375 Z M294.09375,42.1875 L269.0625,42.1875 C269.0625,33.046875 273.84375,27.609375 281.765625,27.609375 C289.5,27.609375 294.09375,33.09375 294.09375,42.1875 Z" id="Code" fill="#000000" fill-rule="nonzero"></path>
            <rect id="Rectangle" fill="#9D9BFF" x="64.5" y="85" width="610" height="116" rx="8"></rect>
            <path d="M104.71875,177.40625 C118.96875,177.40625 128.484375,168.359375 128.484375,154.671875 L118.640625,154.671875 C118.453125,163.203125 113.109375,168.453125 104.671875,168.453125 C94.5,168.453125 89.203125,161.5625 89.203125,148.4375 L89.203125,135.921875 C89.203125,122.796875 94.5,115.90625 104.625,115.90625 C112.734375,115.90625 118.359375,121.8125 118.640625,130.671875 L128.484375,130.671875 C128.296875,115.8125 119.34375,106.953125 104.71875,106.953125 C88.59375,106.953125 79.171875,117.59375 79.171875,135.921875 L79.171875,148.4375 C79.171875,166.765625 88.59375,177.40625 104.71875,177.40625 Z M162.515625,176.984375 C176.296875,176.984375 185.0625,168.171875 185.0625,154.34375 L185.0625,146.609375 C185.0625,132.734375 176.296875,123.96875 162.515625,123.96875 C148.734375,123.96875 139.96875,132.734375 139.96875,146.609375 L139.96875,154.34375 C139.96875,168.171875 148.734375,176.984375 162.515625,176.984375 Z M162.515625,169.015625 C154.359375,169.015625 149.25,163.15625 149.25,153.6875 L149.25,147.265625 C149.25,137.796875 154.359375,131.9375 162.515625,131.9375 C170.671875,131.9375 175.78125,137.796875 175.78125,147.265625 L175.78125,153.6875 C175.78125,163.15625 170.671875,169.015625 162.515625,169.015625 Z M205.125,176 L205.125,141.359375 C205.125,135.734375 207.703125,132.265625 211.828125,132.265625 C215.71875,132.265625 217.828125,135.171875 217.828125,140.65625 L217.828125,176 L226.03125,176 L226.03125,141.359375 C226.03125,135.734375 228.5625,132.265625 232.59375,132.265625 C236.4375,132.265625 238.59375,135.21875 238.59375,140.703125 L238.59375,176 L246.84375,176 L246.84375,137.796875 C246.84375,128.75 243.234375,123.921875 236.34375,123.921875 C231.28125,123.921875 227.34375,127.0625 226.125,132.125 L225.09375,132.125 C224.015625,126.921875 220.6875,123.921875 215.90625,123.921875 C211.03125,123.921875 207.421875,127.015625 206.203125,132.3125 L205.171875,132.3125 L205.171875,124.90625 L196.875,124.90625 L196.875,176 L205.125,176 Z M269.484375,193.15625 L269.484375,167.890625 L270.375,167.890625 C272.4375,173.609375 277.78125,176.84375 285.1875,176.84375 C296.953125,176.84375 304.453125,168.453125 304.453125,155.140625 L304.453125,145.8125 C304.453125,132.5 296.953125,124.109375 285.1875,124.109375 C277.78125,124.109375 272.53125,127.203125 270.140625,133.015625 L269.25,133.015625 L269.25,124.90625 L259.828125,124.90625 L259.828125,193.15625 L269.484375,193.15625 Z M282.046875,168.734375 C274.21875,168.734375 269.25,163.203125 269.25,154.390625 L269.25,146.75 C269.25,137.984375 274.21875,132.453125 282.046875,132.453125 C289.921875,132.453125 294.9375,137.984375 294.9375,146.75 L294.9375,154.390625 C294.9375,163.15625 289.921875,168.734375 282.046875,168.734375 Z M362.953125,176 L362.953125,168.40625 L346.546875,168.40625 L346.546875,104.984375 L320.4375,104.984375 L320.4375,112.625 L337.171875,112.625 L337.171875,168.40625 L320.0625,168.40625 L320.0625,176 L362.953125,176 Z M401.0625,176.984375 C412.078125,176.984375 420.515625,171.078125 421.875,162.5 L412.875,162.5 C411.609375,166.671875 407.0625,169.25 401.015625,169.25 C392.953125,169.25 387.75,163.71875 387.75,155.09375 L387.75,152.796875 L422.015625,152.796875 L422.015625,147.265625 C422.015625,132.734375 413.90625,123.921875 400.546875,123.921875 C387.28125,123.921875 378.515625,132.78125 378.515625,146.234375 L378.515625,154.015625 C378.515625,168.546875 386.71875,176.984375 401.0625,176.984375 Z M412.78125,146.1875 L387.75,146.1875 C387.75,137.046875 392.53125,131.609375 400.453125,131.609375 C408.1875,131.609375 412.78125,137.09375 412.78125,146.1875 Z M479.15625,175.8125 L479.15625,168.125 C478.03125,168.265625 471.796875,168.359375 469.40625,168.359375 C462.890625,168.359375 459.375,165.59375 459.375,160.53125 L459.375,132.921875 L479.4375,132.921875 L479.4375,125.1875 L459.234375,125.1875 L459.234375,110.9375 L449.953125,110.9375 L449.953125,125.1875 L436.453125,125.1875 L436.453125,132.921875 L449.953125,132.921875 L449.953125,160.53125 C449.953125,171.5 455.671875,176.1875 468.75,176.1875 C470.71875,176.1875 478.125,176 479.15625,175.8125 Z" id="Complet" fill="#000000" fill-rule="nonzero"></path>
            <polygon id="1" fill="#747474" fill-rule="nonzero" points="19.890625 59.5 19.890625 19.5097656 13.328125 19.5097656 3.8359375 26.3945312 3.8359375 32.9863281 13.0058594 26.453125 13.328125 26.453125 13.328125 59.5"></polygon>
            <path d="M26.9960938,163.5 L26.9960938,157.699219 L9.50585938,157.699219 L9.50585938,157.347656 L19.3789062,146.507812 C23.0117188,142.552734 26.2929688,139.154297 26.2929688,133.822266 C26.2929688,127.494141 21.1367188,122.71875 13.2265625,122.71875 C4.4375,122.71875 0.04296875,128.724609 0.04296875,134.818359 L0.04296875,135.140625 L6.40039062,135.140625 L6.40039062,134.789062 L6.40039062,134.789062 C6.40039062,131.419922 8.86132812,128.431641 13.0800781,128.431641 C16.859375,128.431641 19.6425781,130.833984 19.6425781,134.4375 C19.6425781,137.865234 17.2988281,140.501953 15.1308594,142.875 L0.27734375,159.134766 L0.27734375,163.5 L26.9960938,163.5 Z" id="2" fill="#747474" fill-rule="nonzero"></path>
            <rect id="Rectangle" fill="#000000" x="484" y="81" width="8" height="124" rx="2"></rect>
            <path d="M520.515625,112.953125 C524.734375,112.953125 527.78125,110.046875 527.78125,106.015625 C527.78125,101.9375 524.734375,99.03125 520.515625,99.03125 C516.34375,99.03125 513.25,101.9375 513.25,106.015625 C513.25,110.046875 516.34375,112.953125 520.515625,112.953125 Z M542.078125,176 L542.078125,168.40625 L525.578125,168.40625 L525.578125,124.90625 L499.5625,124.90625 L499.5625,132.5 L516.390625,132.5 L516.390625,168.40625 L499.1875,168.40625 L499.1875,176 L542.078125,176 Z M579.015625,176.984375 C592.796875,176.984375 601.5625,168.171875 601.5625,154.34375 L601.5625,146.609375 C601.5625,132.734375 592.796875,123.96875 579.015625,123.96875 C565.234375,123.96875 556.46875,132.734375 556.46875,146.609375 L556.46875,154.34375 C556.46875,168.171875 565.234375,176.984375 579.015625,176.984375 Z M579.015625,169.015625 C570.859375,169.015625 565.75,163.15625 565.75,153.6875 L565.75,147.265625 C565.75,137.796875 570.859375,131.9375 579.015625,131.9375 C587.171875,131.9375 592.28125,137.796875 592.28125,147.265625 L592.28125,153.6875 C592.28125,163.15625 587.171875,169.015625 579.015625,169.015625 Z M626.265625,176 L626.265625,146.046875 C626.265625,137.796875 631.515625,132.3125 639.34375,132.3125 C646.890625,132.3125 650.40625,136.4375 650.40625,145.203125 L650.40625,176 L659.828125,176 L659.828125,142.859375 C659.828125,130.578125 653.828125,123.921875 642.71875,123.921875 C635.078125,123.921875 629.3125,127.484375 626.640625,133.8125 L625.984375,133.8125 L625.984375,124.90625 L616.890625,124.90625 L616.890625,176 L626.265625,176 Z" id="ion" fill-opacity="0.5" fill="#000000" fill-rule="nonzero"></path>
        </g>
    </g>
</svg>