<?xml version="1.0" encoding="UTF-8"?>
<svg width="1024px" height="512px" viewBox="0 0 1024 512" version="1.1" xmlns="http://www.w3.org/2000/svg" xmlns:xlink="http://www.w3.org/1999/xlink">
    <title>Code Completion Logo - Light Content - Standard</title>
    <g id="Code-Completion-Logo---Light-Content---Standard" stroke="none" stroke-width="1" fill="none" fill-rule="evenodd">
        <g id="Logo-Copy" transform="translate(173.000000, 145.000000)">
            <path d="M108.71875,92.40625 C122.96875,92.40625 132.484375,83.359375 132.484375,69.671875 L122.640625,69.671875 C122.453125,78.203125 117.109375,83.453125 108.671875,83.453125 C98.5,83.453125 93.203125,76.5625 93.203125,63.4375 L93.203125,50.921875 C93.203125,37.796875 98.5,30.90625 108.625,30.90625 C116.734375,30.90625 122.359375,36.8125 122.640625,45.671875 L132.484375,45.671875 C132.296875,30.8125 123.34375,21.953125 108.71875,21.953125 C92.59375,21.953125 83.171875,32.59375 83.171875,50.921875 L83.171875,63.4375 C83.171875,81.765625 92.59375,92.40625 108.71875,92.40625 Z M166.515625,91.984375 C180.296875,91.984375 189.0625,83.171875 189.0625,69.34375 L189.0625,61.609375 C189.0625,47.734375 180.296875,38.96875 166.515625,38.96875 C152.734375,38.96875 143.96875,47.734375 143.96875,61.609375 L143.96875,69.34375 C143.96875,83.171875 152.734375,91.984375 166.515625,91.984375 Z M166.515625,84.015625 C158.359375,84.015625 153.25,78.15625 153.25,68.6875 L153.25,62.265625 C153.25,52.796875 158.359375,46.9375 166.515625,46.9375 C174.671875,46.9375 179.78125,52.796875 179.78125,62.265625 L179.78125,68.6875 C179.78125,78.15625 174.671875,84.015625 166.515625,84.015625 Z M221.921875,91.84375 C229.28125,91.84375 234.53125,88.703125 236.96875,82.9375 L237.859375,82.9375 L237.859375,91 L247.28125,91 L247.28125,19.984375 L237.625,19.984375 L237.625,48.015625 L236.734375,48.015625 C234.671875,42.296875 229.28125,39.0625 221.921875,39.0625 C210.15625,39.0625 202.65625,47.453125 202.65625,60.8125 L202.65625,70.09375 C202.65625,83.453125 210.15625,91.84375 221.921875,91.84375 Z M225.015625,83.5 C217.140625,83.5 212.171875,77.96875 212.171875,69.203125 L212.171875,61.5625 C212.171875,52.796875 217.140625,47.21875 225.015625,47.21875 C232.890625,47.21875 237.859375,52.75 237.859375,61.5625 L237.859375,69.203125 C237.859375,77.96875 232.890625,83.5 225.015625,83.5 Z M286.375,91.984375 C297.390625,91.984375 305.828125,86.078125 307.1875,77.5 L298.1875,77.5 C296.921875,81.671875 292.375,84.25 286.328125,84.25 C278.265625,84.25 273.0625,78.71875 273.0625,70.09375 L273.0625,67.796875 L307.328125,67.796875 L307.328125,62.265625 C307.328125,47.734375 299.21875,38.921875 285.859375,38.921875 C272.59375,38.921875 263.828125,47.78125 263.828125,61.234375 L263.828125,69.015625 C263.828125,83.546875 272.03125,91.984375 286.375,91.984375 Z M298.09375,61.1875 L273.0625,61.1875 C273.0625,52.046875 277.84375,46.609375 285.765625,46.609375 C293.5,46.609375 298.09375,52.09375 298.09375,61.1875 Z" id="Code" fill="#FFFFFF" fill-rule="nonzero"></path>
            <rect id="Rectangle" fill="#6848FF" x="68.5" y="104" width="610" height="116" rx="8"></rect>
            <path d="M108.71875,196.40625 C122.96875,196.40625 132.484375,187.359375 132.484375,173.671875 L122.640625,173.671875 C122.453125,182.203125 117.109375,187.453125 108.671875,187.453125 C98.5,187.453125 93.203125,180.5625 93.203125,167.4375 L93.203125,154.921875 C93.203125,141.796875 98.5,134.90625 108.625,134.90625 C116.734375,134.90625 122.359375,140.8125 122.640625,149.671875 L132.484375,149.671875 C132.296875,134.8125 123.34375,125.953125 108.71875,125.953125 C92.59375,125.953125 83.171875,136.59375 83.171875,154.921875 L83.171875,167.4375 C83.171875,185.765625 92.59375,196.40625 108.71875,196.40625 Z M166.515625,195.984375 C180.296875,195.984375 189.0625,187.171875 189.0625,173.34375 L189.0625,165.609375 C189.0625,151.734375 180.296875,142.96875 166.515625,142.96875 C152.734375,142.96875 143.96875,151.734375 143.96875,165.609375 L143.96875,173.34375 C143.96875,187.171875 152.734375,195.984375 166.515625,195.984375 Z M166.515625,188.015625 C158.359375,188.015625 153.25,182.15625 153.25,172.6875 L153.25,166.265625 C153.25,156.796875 158.359375,150.9375 166.515625,150.9375 C174.671875,150.9375 179.78125,156.796875 179.78125,166.265625 L179.78125,172.6875 C179.78125,182.15625 174.671875,188.015625 166.515625,188.015625 Z M209.125,195 L209.125,160.359375 C209.125,154.734375 211.703125,151.265625 215.828125,151.265625 C219.71875,151.265625 221.828125,154.171875 221.828125,159.65625 L221.828125,195 L230.03125,195 L230.03125,160.359375 C230.03125,154.734375 232.5625,151.265625 236.59375,151.265625 C240.4375,151.265625 242.59375,154.21875 242.59375,159.703125 L242.59375,195 L250.84375,195 L250.84375,156.796875 C250.84375,147.75 247.234375,142.921875 240.34375,142.921875 C235.28125,142.921875 231.34375,146.0625 230.125,151.125 L229.09375,151.125 C228.015625,145.921875 224.6875,142.921875 219.90625,142.921875 C215.03125,142.921875 211.421875,146.015625 210.203125,151.3125 L209.171875,151.3125 L209.171875,143.90625 L200.875,143.90625 L200.875,195 L209.125,195 Z M273.484375,212.15625 L273.484375,186.890625 L274.375,186.890625 C276.4375,192.609375 281.78125,195.84375 289.1875,195.84375 C300.953125,195.84375 308.453125,187.453125 308.453125,174.140625 L308.453125,164.8125 C308.453125,151.5 300.953125,143.109375 289.1875,143.109375 C281.78125,143.109375 276.53125,146.203125 274.140625,152.015625 L273.25,152.015625 L273.25,143.90625 L263.828125,143.90625 L263.828125,212.15625 L273.484375,212.15625 Z M286.046875,187.734375 C278.21875,187.734375 273.25,182.203125 273.25,173.390625 L273.25,165.75 C273.25,156.984375 278.21875,151.453125 286.046875,151.453125 C293.921875,151.453125 298.9375,156.984375 298.9375,165.75 L298.9375,173.390625 C298.9375,182.15625 293.921875,187.734375 286.046875,187.734375 Z M366.953125,195 L366.953125,187.40625 L350.546875,187.40625 L350.546875,123.984375 L324.4375,123.984375 L324.4375,131.625 L341.171875,131.625 L341.171875,187.40625 L324.0625,187.40625 L324.0625,195 L366.953125,195 Z M405.0625,195.984375 C416.078125,195.984375 424.515625,190.078125 425.875,181.5 L416.875,181.5 C415.609375,185.671875 411.0625,188.25 405.015625,188.25 C396.953125,188.25 391.75,182.71875 391.75,174.09375 L391.75,171.796875 L426.015625,171.796875 L426.015625,166.265625 C426.015625,151.734375 417.90625,142.921875 404.546875,142.921875 C391.28125,142.921875 382.515625,151.78125 382.515625,165.234375 L382.515625,173.015625 C382.515625,187.546875 390.71875,195.984375 405.0625,195.984375 Z M416.78125,165.1875 L391.75,165.1875 C391.75,156.046875 396.53125,150.609375 404.453125,150.609375 C412.1875,150.609375 416.78125,156.09375 416.78125,165.1875 Z M483.15625,194.8125 L483.15625,187.125 C482.03125,187.265625 475.796875,187.359375 473.40625,187.359375 C466.890625,187.359375 463.375,184.59375 463.375,179.53125 L463.375,151.921875 L483.4375,151.921875 L483.4375,144.1875 L463.234375,144.1875 L463.234375,129.9375 L453.953125,129.9375 L453.953125,144.1875 L440.453125,144.1875 L440.453125,151.921875 L453.953125,151.921875 L453.953125,179.53125 C453.953125,190.5 459.671875,195.1875 472.75,195.1875 C474.71875,195.1875 482.125,195 483.15625,194.8125 Z" id="Complet" fill="#FFFFFF" fill-rule="nonzero"></path>
            <polygon id="1" fill="#B3B3B3" fill-rule="nonzero" points="23.890625 78.5 23.890625 38.5097656 17.328125 38.5097656 7.8359375 45.3945312 7.8359375 51.9863281 17.0058594 45.453125 17.328125 45.453125 17.328125 78.5"></polygon>
            <path d="M30.9960938,182.5 L30.9960938,176.699219 L13.5058594,176.699219 L13.5058594,176.347656 L23.3789062,165.507812 C27.0117188,161.552734 30.2929688,158.154297 30.2929688,152.822266 C30.2929688,146.494141 25.1367188,141.71875 17.2265625,141.71875 C8.4375,141.71875 4.04296875,147.724609 4.04296875,153.818359 L4.04296875,154.140625 L10.4003906,154.140625 L10.4003906,153.789062 L10.4003906,153.789062 C10.4003906,150.419922 12.8613281,147.431641 17.0800781,147.431641 C20.859375,147.431641 23.6425781,149.833984 23.6425781,153.4375 C23.6425781,156.865234 21.2988281,159.501953 19.1308594,161.875 L4.27734375,178.134766 L4.27734375,182.5 L30.9960938,182.5 Z" id="2" fill="#B3B3B3" fill-rule="nonzero"></path>
            <rect id="Rectangle" fill="#FFFFFF" x="488" y="100" width="8" height="124" rx="2"></rect>
            <path d="M524.515625,131.953125 C528.734375,131.953125 531.78125,129.046875 531.78125,125.015625 C531.78125,120.9375 528.734375,118.03125 524.515625,118.03125 C520.34375,118.03125 517.25,120.9375 517.25,125.015625 C517.25,129.046875 520.34375,131.953125 524.515625,131.953125 Z M546.078125,195 L546.078125,187.40625 L529.578125,187.40625 L529.578125,143.90625 L503.5625,143.90625 L503.5625,151.5 L520.390625,151.5 L520.390625,187.40625 L503.1875,187.40625 L503.1875,195 L546.078125,195 Z M583.015625,195.984375 C596.796875,195.984375 605.5625,187.171875 605.5625,173.34375 L605.5625,165.609375 C605.5625,151.734375 596.796875,142.96875 583.015625,142.96875 C569.234375,142.96875 560.46875,151.734375 560.46875,165.609375 L560.46875,173.34375 C560.46875,187.171875 569.234375,195.984375 583.015625,195.984375 Z M583.015625,188.015625 C574.859375,188.015625 569.75,182.15625 569.75,172.6875 L569.75,166.265625 C569.75,156.796875 574.859375,150.9375 583.015625,150.9375 C591.171875,150.9375 596.28125,156.796875 596.28125,166.265625 L596.28125,172.6875 C596.28125,182.15625 591.171875,188.015625 583.015625,188.015625 Z M630.265625,195 L630.265625,165.046875 C630.265625,156.796875 635.515625,151.3125 643.34375,151.3125 C650.890625,151.3125 654.40625,155.4375 654.40625,164.203125 L654.40625,195 L663.828125,195 L663.828125,161.859375 C663.828125,149.578125 657.828125,142.921875 646.71875,142.921875 C639.078125,142.921875 633.3125,146.484375 630.640625,152.8125 L629.984375,152.8125 L629.984375,143.90625 L620.890625,143.90625 L620.890625,195 L630.265625,195 Z" id="ion" fill-opacity="0.5" fill="#FFFFFF" fill-rule="nonzero"></path>
        </g>
    </g>
</svg>